<?xml version="1.0" encoding="utf-8"?>
<!-- Generator: Adobe Illustrator 16.0.4, SVG Export Plug-In . SVG Version: 6.00 Build 0)  -->
<!DOCTYPE svg PUBLIC "-//W3C//DTD SVG 1.1//EN" "http://www.w3.org/Graphics/SVG/1.1/DTD/svg11.dtd">
<svg version="1.1" id="Layer_1" xmlns="http://www.w3.org/2000/svg" xmlns:xlink="http://www.w3.org/1999/xlink" x="0px" y="0px"
	 width="601.5px" height="524px" viewBox="10.5 54.5 601.5 524" enable-background="new 10.5 54.5 601.5 524" xml:space="preserve">
<path d="M45.9,105.3h50.172l27.001,80.999c0.073,0.232,0.147,0.453,0.227,0.679l61.083,183.257l25.037,75.111
	c-23.899,8.342-41.121,31.047-41.121,57.754c0,33.746,27.455,61.2,61.2,61.2s61.2-27.454,61.2-61.2c0-11.15-3.048-21.585-8.281-30.6
	h154.261c-5.233,9.015-8.28,19.449-8.28,30.6c0,33.746,27.454,61.2,61.199,61.2c33.746,0,61.2-27.454,61.2-61.2
	c0-33.745-27.454-61.199-61.2-61.199H240.528l-20.398-61.2h55.221c0.012,0,0.024,0,0.031,0c0.012,0,0.024,0,0.037,0h152.963
	c0.012,0,0.024,0,0.036,0c0.013,0,0.024,0,0.031,0H504.9c6.585,0,12.43-4.211,14.517-10.459l61.199-183.6
	c1.555-4.664,0.771-9.798-2.099-13.783c-2.883-3.996-7.497-6.358-12.418-6.358H245.394c-0.018,0-0.037,0-0.055,0h-96.61
	l-27.111-81.341C119.53,78.911,113.685,74.7,107.1,74.7H45.9c-8.452,0-15.3,6.848-15.3,15.3S37.448,105.3,45.9,105.3z M367.2,350.1
	v-61.2h58.439l-10.202,61.2H367.2z M367.2,258.3v-61.2h73.739l-10.201,61.2H367.2z M336.6,258.3h-63.538l-10.202-61.2H336.6V258.3z
	 M336.6,288.9v61.2h-48.237l-10.202-61.2H336.6z M257.34,350.1h-47.412l-20.398-61.2h57.614L257.34,350.1z M260.1,503.1
	c0,16.873-13.727,30.601-30.6,30.601s-30.6-13.728-30.6-30.601c0-16.872,13.727-30.6,30.6-30.6S260.1,486.228,260.1,503.1z
	 M520.2,503.1c0,16.873-13.728,30.601-30.601,30.601c-16.872,0-30.6-13.728-30.6-30.601c0-16.872,13.728-30.6,30.6-30.6
	C506.473,472.5,520.2,486.228,520.2,503.1z M493.872,350.1H446.46l10.202-61.2h57.613L493.872,350.1z M524.472,258.3H461.76
	l10.202-61.2h72.914L524.472,258.3z M231.838,197.1l10.202,61.2h-62.712l-20.398-61.2H231.838z"/>
</svg>
